<svg xmlns="http://www.w3.org/2000/svg" xmlns:xlink="http://www.w3.org/1999/xlink" width="373" height="189" viewBox="0 0 373 189"><defs><filter id="a" x="0" y="0" width="190" height="189" filterUnits="userSpaceOnUse"><feOffset dy="3" input="SourceAlpha"/><feGaussianBlur stdDeviation="3" result="b"/><feFlood flood-opacity="0.161"/><feComposite operator="in" in2="b"/><feComposite in="SourceGraphic"/></filter><filter id="c" x="183" y="0" width="190" height="189" filterUnits="userSpaceOnUse"><feOffset dy="3" input="SourceAlpha"/><feGaussianBlur stdDeviation="3" result="d"/><feFlood flood-opacity="0.161"/><feComposite operator="in" in2="d"/><feComposite in="SourceGraphic"/></filter></defs><g transform="translate(-913 -389)"><g transform="translate(921.823 395.055)"><g transform="matrix(1, 0, 0, 1, -8.82, -6.05)" filter="url(#a)"><ellipse cx="86" cy="85.5" rx="86" ry="85.5" transform="translate(9 6)" fill="#01309b"/></g><g transform="translate(27.458 46.058)"><path d="M18.873-2.511V-55.647a2.531,2.531,0,0,0-2.592-2.673c-1.62,0-3.888,1.7-5.1,2.754a30.289,30.289,0,0,1-6.723,4.455c-1.782.891-2.349,1.62-2.349,3.645,0,1.782.486,2.754,2.349,2.754H8.019c1.782,0,2.511.891,2.511,2.592V-2.511C10.53-1.134,11.178,0,12.717,0h3.807A2.256,2.256,0,0,0,18.873-2.511ZM58.239-18.387v-21.06c0-6.642-.729-10.287-3-13.77-2.268-3.564-6.48-5.508-11.583-5.508-5.022,0-8.91,1.863-11.421,5.508-2.187,3.159-3.078,7.128-3.078,13.77v21.06c0,6.642.891,10.287,3.078,13.689C34.587-1.134,38.637.891,43.659.891c5.184,0,9.072-1.863,11.583-5.589C57.429-7.857,58.239-11.664,58.239-18.387ZM49.815-16.6c0,7.128-1.539,9.558-6.156,9.558-4.536,0-6.075-2.43-6.075-9.558v-24.7c0-7.047,1.539-9.558,6.075-9.558,4.617,0,6.156,2.43,6.156,9.558Z" transform="translate(-0.281 71.888)" fill="#fff"/></g><path d="M8.4-17.025a28.9,28.9,0,0,1-.35,4.975A17.255,17.255,0,0,1,4.725-3.8,13.323,13.323,0,0,1,.875-.375a8.7,8.7,0,0,1,2.1,2.4,16.555,16.555,0,0,0,4.9-5.075,19.832,19.832,0,0,0,2.775-7.475h7.775C18.25-6.175,17.9-3.125,17.4-1.9c-.275.7-.725.9-1.95.9a21.807,21.807,0,0,1-3.925-.5A9.7,9.7,0,0,1,12.2,1.35c2.2.175,2.725.2,3.55.2,2.475,0,3.575-.55,4.2-2.1.625-1.525,1.125-5.5,1.3-9.9a24.7,24.7,0,0,1,.15-2.825,25.927,25.927,0,0,1-3.2.125H11.025a37.285,37.285,0,0,0,.225-3.875h9.375a31.467,31.467,0,0,1,3.175.15v-2.95a30.917,30.917,0,0,1-3.2.15H4.525a29.9,29.9,0,0,1-3.2-.15v2.95c1.025-.1,2.075-.15,3.225-.15ZM30.075-7.75H44.95v6.1c0,.6-.15.675-1.125.675-.9,0-2.15-.1-3.8-.275a9.62,9.62,0,0,1,.775,2.7c.975.05,2.35.1,3.325.1A6.149,6.149,0,0,0,46.75,1.2c.725-.375,1.025-1.075,1.025-2.35V-17.175a24.6,24.6,0,0,1,.1-2.725,22.918,22.918,0,0,1-2.725.1H29.95a26.858,26.858,0,0,1-2.775-.1,21.539,21.539,0,0,1,.1,2.4V-1.15a23.747,23.747,0,0,1-.15,3H30.2a18.377,18.377,0,0,1-.125-2.9ZM36-10.375H30.075V-17.15H36Zm2.7,0V-17.15h6.25v6.775Z" transform="translate(93.177 83.945)" fill="#fff"/><path d="M17.273-18.814a9.392,9.392,0,0,1,.092,1.518q0,6.831-2.484,10.833C13.2-3.749,10.718-1.886,6.67-.322A10.545,10.545,0,0,1,8.142,1.955a18.321,18.321,0,0,0,7.7-5.5,17.928,17.928,0,0,0,4.945,5.313A10.118,10.118,0,0,1,22.4-.851,13.278,13.278,0,0,1,17.388-5.8a16.462,16.462,0,0,0,1.449-3.358,30.875,30.875,0,0,0,1.1-6.417c.207-2.944.207-2.944.23-3.2ZM3.358-3.956a15.035,15.035,0,0,1-2.3.736L1.794-.414C2.369-.69,2.53-.759,3.4-1.15a61.556,61.556,0,0,0,9.039-4.577l-.552-2.415A48.067,48.067,0,0,1,5.98-5.014L5.865-15.985v-.506a20.312,20.312,0,0,1,.115-2.254H3.059a21.042,21.042,0,0,1,.184,2.737ZM7.866-16.008a26.575,26.575,0,0,1,4.393,5.865l2.369-1.633a34.419,34.419,0,0,0-4.554-5.635Zm24.679.253V-1.472A22.772,22.772,0,0,1,32.384,1.7h2.99a22.99,22.99,0,0,1-.161-3.174v-8.993a45.51,45.51,0,0,1,6.946,3.933l1.311-2.3a57.948,57.948,0,0,0-8.257-4.232v-2.691H41.7c1.173,0,2.116.046,3.082.138v-2.691a30.318,30.318,0,0,1-3.082.138H27.255a29.374,29.374,0,0,1-3.082-.138v2.691c.92-.092,1.932-.138,3.082-.138Z" transform="translate(93.177 113.945)" fill="#fff"/></g><g transform="translate(1105.169 395.055)"><g transform="matrix(1, 0, 0, 1, -192.17, -6.05)" filter="url(#c)"><ellipse cx="86" cy="85.5" rx="86" ry="85.5" transform="translate(192 6)" fill="#01309b"/></g><g transform="translate(31 42.515)"><path d="M-22.48-25.04a33.356,33.356,0,0,1-4.48-.2,46.767,46.767,0,0,1,.16,4.68V-7.92A30.361,30.361,0,0,1-27-3.56h4.52a21.729,21.729,0,0,1-.24-4.36V-9.96h5.4v1.68a30.769,30.769,0,0,1-.24,4.44h4.44a25.582,25.582,0,0,1-.24-4.44V-9.96h6V-8.4c0,1.04-.04,1.12-.92,1.12a19.3,19.3,0,0,1-2.64-.24A9.835,9.835,0,0,1-10-3.72c.76.04,1.44.04,1.8.04,2.48,0,3.48-.24,4.2-.92.56-.6.72-1.4.72-3.68V-20.6a43.4,43.4,0,0,1,.16-4.64,25.492,25.492,0,0,1-4.08.2h-3.2a53.147,53.147,0,0,0,5.16-3.8,15.248,15.248,0,0,1,2-1.52l-2.04-2.48a20.138,20.138,0,0,1-4.52.28H-22.76a35.6,35.6,0,0,1-4.76-.24v4.08a29.638,29.638,0,0,1,4.16-.2h3.8l-3.08,1.8a23.06,23.06,0,0,1,3.32,2.08Zm9.12,3.4h6v2.6h-6Zm-3.96,0v2.6h-5.4v-2.6Zm-5.4,5.8h5.4v2.68h-5.4Zm15.36,2.68h-6v-2.68h6Zm-3.72-15.76a37.962,37.962,0,0,1-4,3c-2.36-1.76-2.72-2-4.16-3ZM-38.6-30.16a38.284,38.284,0,0,1,6.8,7.48l3.32-3.24a46.364,46.364,0,0,0-6.92-7.24Zm.12,16.12a13.287,13.287,0,0,1,2.56-.2h2.04v8.52a22.935,22.935,0,0,1-5.28,3.84L-37,2.52a33.541,33.541,0,0,0,4.44-3.88,7.2,7.2,0,0,0,.64-.6,9.718,9.718,0,0,0,4.64,3.4,29.762,29.762,0,0,0,9,1c6.72,0,10.76-.08,16-.32A26.744,26.744,0,0,1-1.12-2.64,112.828,112.828,0,0,1-17.84-1.6a32.491,32.491,0,0,1-7.96-.72,7.4,7.4,0,0,1-2-1.04A6.091,6.091,0,0,1-29.76-5.6v-8.56a40.3,40.3,0,0,1,.16-4.36,17.335,17.335,0,0,1-3.04.2h-2.8a16.79,16.79,0,0,1-3.04-.2ZM17.96-7.72V-1.8c0,.8-.28.92-2.04.92a36.41,36.41,0,0,1-4.96-.4,15.179,15.179,0,0,1,1.32,4.24c2.08.12,3.4.16,3.92.16,3.6,0,4.96-.32,5.64-1.32a3.862,3.862,0,0,0,.52-2.52v-7h10.4a39.516,39.516,0,0,1,4.96.24v-4.44a32.947,32.947,0,0,1-4.92.28H22.36v-.04a56,56,0,0,0,8-5.84c.76-.64.76-.64,1.44-1.2l-2.2-2.44a18.079,18.079,0,0,1-3.04.16H13.32a29.17,29.17,0,0,1-4.04-.2v4a39.628,39.628,0,0,1,4-.16h11a21.183,21.183,0,0,1-4.72,3.24H17.84a18.712,18.712,0,0,1,.12,2.2v.28H7.08a33.942,33.942,0,0,1-4.84-.28v4.44a38.97,38.97,0,0,1,4.88-.24ZM7.28-27.48a38.469,38.469,0,0,1-4.72-.16,26.29,26.29,0,0,1,.16,3.32v3.68a17.537,17.537,0,0,1-.2,3.08H6.88v-6.2H32.96v6.2h4.36a24.249,24.249,0,0,1-.2-3.04v-3.72a25.1,25.1,0,0,1,.16-3.32,48.147,48.147,0,0,1-4.92.16h-1.8a41.907,41.907,0,0,0,3-4.8l-4.32-1.2a26.5,26.5,0,0,1-3.28,6h-3.4a31.65,31.65,0,0,0-2.76-6.2l-4.16,1.16a23.394,23.394,0,0,1,2.44,5.04H13.84A29.492,29.492,0,0,0,10.2-33.2L6.16-32a23.172,23.172,0,0,1,3,4.52Zm-34.7,48.24A31.713,31.713,0,0,1-33.1,28.2a46.909,46.909,0,0,1-12.6,9.32,14.339,14.339,0,0,1,2.8,4.08,72.418,72.418,0,0,0,7.6-5.28,36.38,36.38,0,0,0,5.84-5.84c-.04,1.76-.04,2.28-.04,3.72v12a50.373,50.373,0,0,1-.28,5.04h5.16a38.6,38.6,0,0,1-.28-5.04v-21a26.992,26.992,0,0,0,2.84-4.44h8.08c1.72,0,3.6.08,5.2.24V16.28a44.346,44.346,0,0,1-5.32.24H-39.54a53.02,53.02,0,0,1-5.32-.24V21c1.6-.16,3.76-.24,5.48-.24Zm2.84,8.88a47.965,47.965,0,0,0,14.2,11.92A24.387,24.387,0,0,1-7.62,37.2a34.4,34.4,0,0,1-8.2-5.12,41.179,41.179,0,0,1-5.84-5.68ZM.14,35.12a31.784,31.784,0,0,1-4.6-.24v4.16c1.32-.12,2.64-.2,4.6-.2H4.42A30.631,30.631,0,0,1,.46,42.76c4.04.96,4.72,1.12,9.36,2.36A38.64,38.64,0,0,1-3.62,47.08H-4.5a14.331,14.331,0,0,1,1.8,4.08c7.96-.4,13.36-1.72,18.04-4.36a82.992,82.992,0,0,1,9.52,3.76c.52.24,1.32.6,2.32,1.04l2.8-3.68a102.413,102.413,0,0,0-10.96-3.88,19.547,19.547,0,0,0,3.64-5.2h3.6c1.96,0,3.32.08,4.64.2V34.88a26.535,26.535,0,0,1-4.64.24H12.14c.48-.8.6-1.04,1.44-2.52H23.7a39.463,39.463,0,0,1,4.52.16c-.08-1-.12-1.92-.12-3.92V26.12a35.54,35.54,0,0,1,.16-4.08,32.994,32.994,0,0,1-4.48.2H19.14V19.72H26.3c1.92,0,3.36.08,4.64.2V15.68a36.158,36.158,0,0,1-4.96.24H.54a37.521,37.521,0,0,1-4.92-.24v4.24c1.24-.12,2.72-.2,4.6-.2H6.86v2.52H2.5a34.926,34.926,0,0,1-4.44-.2,37.837,37.837,0,0,1,.16,4.08v2.76a33.878,33.878,0,0,1-.16,3.88C-.7,32.64.62,32.6,2.7,32.6H8.78A21.959,21.959,0,0,1,7.3,35.12ZM17.9,38.84a11.9,11.9,0,0,1-3.48,3.84c-1.4-.4-1.96-.56-2.4-.64-3.12-.72-3.12-.72-4.52-1.12a25.291,25.291,0,0,0,1.92-2.08ZM10.82,19.72h4.36v2.52H10.82ZM6.86,25.48v3.8H2.46v-3.8Zm3.96,0h4.36v3.8H10.82Zm8.32,0h4.68v3.8H19.14Zm23.2,14.24a14.286,14.286,0,0,1-.08-1.68c0-.56,0-.56.08-2.92l.56-13.6c.08-1.72.24-3.8.36-4.88H36.7c.16,1.12.28,3.12.36,4.88l.56,13.6c.12,2.44.12,2.44.12,2.88,0,.48-.04.88-.08,1.72Zm.56,8.76V43H37.1v5.48Z" transform="translate(51.831 32.43)" fill="#fff"/></g></g></g></svg>