<svg xmlns="http://www.w3.org/2000/svg" xmlns:xlink="http://www.w3.org/1999/xlink" width="540.261" height="106.461" viewBox="0 0 540.261 106.461"><defs><clipPath id="a"><rect width="537.086" height="59.879" fill="#f5ff03"/></clipPath></defs><g transform="translate(14.902 34.935) rotate(-5)"><g transform="translate(-15.881 10.531)" clip-path="url(#a)"><path d="M475.2,27.513c-2.006,2.435-2.062,7.131-5.47,7.766-2.347.439-4.709.78-7.543,1.241.49-4.12.913-7.677,1.336-11.234.617.107,1.235.235,1.852.32,1.067.141,1.692-.635,1.445-1.838-.341-1.663-1.317-.678-1.966-.316a7.977,7.977,0,0,0-1.471,1.467c-1.737.554-2.019-1.633-3.627-3.246,1.019,7.758-3.853,9.515-7.04,12.987.955,4.828,5.151,4.512,7.415,6.866-.471,2.457-1.727,2.333-2.8,2.55-5.718,1.156-6.058.7-5.287-6.781a9.9,9.9,0,0,0-.12-1.714c-1.644.154-2.5,1.719-2.581,3.378-.247,5.114-2.626,6.807-6.176,6.994-.468.571-.934,1.147-1.4,1.719-.293.149-.585.3-.875.452.114-.375.229-.746.346-1.117q.675-.9,1.349-1.8c.907-4.128,4.917-6.325,3.943-11.95-.365-2.1-4.06-5.984.684-8.073.71-.316-.506-1.659-1.211-2.256-1.469-1.241-2.411-.657-3.145,1.233-1.245,3.194-1.205,7.336-4.172,9.272l-.226.456.357-.294c1.078-.273,2.341-.857,3,.661a2.153,2.153,0,0,1-1.091,2.644c-3.262,1.732-6.564,3.339-9.85,4.994A4.046,4.046,0,0,1,431.9,44.9c-.051.307-.556.5-.851.742q-.363-1.6-.724-3.2c-1.107,1.817-.628,3.958-.74,5.975,1.549.081,3.1.158,4.648.239.043-.281.077-.563.125-.84.271-1.6.061-3.642,1.7-4.2,1.245-.426,1.458,1.007,1.525,2.111.146,2.346.3,4.853-2.607,4.09-1.243,3.954-5.2,3.22-6.862,6.44a2.2,2.2,0,0,1-.471.418c-.053.026-.29-.269-.269-.337a2.88,2.88,0,0,1,.325-.6,8.639,8.639,0,0,0-1.314-4.7c-1-.188-3.044-.8-2.592-1.241,3.113-3.062,1.69-7.468,2.528-11.127.678-2.968,1.461-5.9,2.286-9.191-2.078.486-3.879,2.107-5.42-1.186-1.064-2.282-3.233-5.114-4.8.021-.482,1.13-.966,2.256-1.45,3.386l-.224.448.359-.281c.505-1.117,1.014-2.239,1.522-3.356,2.424-.606,3.77,2.806,3.126,3.582-2.709,3.284,1.229,4.167,1,6.316a3.161,3.161,0,0,1,.024,3.911c.3,1.352.841,3.331-.963,2.956-1.634-.341-2.5.742-3.613,1.544-.968.772-2.509-1.877-3.113.823a1.809,1.809,0,0,0,.444,1.386c1.647,1.169,2.152-.584,2.8-1.915,3.629,2.188,2.536,4.58.186,7.029.766.252,1.8.149,1.543,1.791a.737.737,0,0,1-.431.516c-1.312.162-1.035-1.224-1.248-2.137-3.584-3.28-5.05,1.373-7.24,3.348-1.9-9.28-1.253-11.741,4.356-16.441-3.023-1.454-4.864.478-6.889,2.862-1.522,1.8-2.286.158-2.328-1.962l1.772-13.793c-1.865,2.422-3.246,4.576-4.709,6.653-.819.03-1.636.055-2.456.081-2.927-3.979,2.36-5.566,1.655-8.909-5.452-.908-6.144-.32-5,5.182.665,3.211.58,7.037,3.225,9.187l.372.307-.242-.478q-.036-1.7-.069-3.412a4.162,4.162,0,0,0,2.613-1.8,9.377,9.377,0,0,1,2.73,6.888c-2.049,2.674-5.787,1.049-7.421,4.137-.029,1.343.482,1.284.788,1.6,1.82,1.842,3.839-4.568,4.763-.345.716,3.271-3.374,2.717-4.693,4.883l.415.96-.756-.525c-.923-.772-1.849-1.548-4.018-3.365,3.025,7.024.011,8.726-4.2,10.5,2.368-5.527-3.355-8.035-1.988-13.72.567-2.346-2.791-2.192-4.326-1.484-1.748.8-1.538,2.422.1,3.574a1.707,1.707,0,0,1,.543,2.115c-2.5,6.628-12.428,10.543-18.569,7.357,5.074-.06,3.39-5.242,4.044-8.649-1.288.772-2.451,2.056-4.036,1.6-.857-.606-1.714-1.215-2.57-1.821-.136-1.68.58-3.408,1.714-2.849,3.27,1.608,3.783-1.732,5.021-3.9l.237-.444-.367.281c-4.55.32-9.044.836-12.867,5.668,2.538-.917,4.164,1.271,6.157,1.395a3.838,3.838,0,0,0,2.581,1.825c-.96,2.295.357,4.563.056,6.849l-2.48.371a1.991,1.991,0,0,1-.514.422c-.074.026-.325-.29-.3-.38a2.658,2.658,0,0,1,.327-.661c.138-3.3-.713-5.335-3.39-3.126-1.727,1.429-2.781,2.58-4.241-.422-.854-1.749-2.419-.64-3.613.073-2.027,1.211-4.02,2.521-6.045,3.745-1.854,1.122-3.709,1.369-4.1-1.894-.378-3.194,1.378-2.687,3.081-2.393,2.826.49,2.719-1.881,2.312-4.359a31.161,31.161,0,0,1,2.2-4.994c2.927-4.329-1.195-2.222-1.87-4.222-.17,3.638-.3,6.385-.428,9.127-2.312-2.973-1.376-7.694-3.9-11.042-2.871.819-3.219,3.954-2.844,6.913.753,5.949.923,5.915-4.031,6.022-.46.87-1,.934-1.61.26-1.362,1.885-2.626,3.907-4.108,5.625-2.929,3.395-3.68,1.066-3.815-2.559.16-.537,1.139-.768.38-1.646q-.279.736-.556,1.471c-2.051.55-3.023-.977-3.11-3.186-.136-3.356,3.206-1,3.784-3.416-2.232-3.344-3.858-.977-5.132,1.19-1.176,2-1.7,5.105-4.388,3.429-2.956-1.847-1.235-4.76-.8-7.4.375-2.273,2-2.9,3.076-4.265l.253-.444-.378.29c-2.666,1.378-5.337-1.77-8.389.968-3.321,2.985-5.321,5.7-4.284,10.952a28.581,28.581,0,0,1,.9-3.177c1.115-2.734,2.054-6.15,5.3-4.61,1.583.755,1.884,8.973.386,11.033-.843,1.156-2.192,2.712-3.435,1.714-1.445-1.16.005-3,.125-4.546l.255-.516-.349.405-2.424.678c-.3,1.459-.793,2.755-2.163,2.781a3.093,3.093,0,0,1-3.166-2.585c-.4-1.8.287-4.273-2.288-3.894-1.91.286-2.089,1.949-2.69,4.009-1.261,4.337-2.389,4-4.936-1.066L293,52.07l.221.461c.351,2.508-.644,4.047-2.459,3.928-2.32-.154-.974-2.623-.937-3.9.1-3.578,1.381-7.626-3.086-8.41-.875.61-1.751,1.215-2.626,1.825a24.251,24.251,0,0,1-4.047,6.568c-2.333,2.772-3.382,1.066-4.284-1.668a5.822,5.822,0,0,0,1.682-1.134c.386-.495.032-1.066-.418-.712a9.669,9.669,0,0,0-1.357,1.719,5.31,5.31,0,0,0-1.117,3.233c.1.2.311.422.285.589-.075.516-.359.5-.734-.009-2.325,1.446-4.348,1.369-3.7-2.738.46-2.917,1-6.018,3.416-9.076-4.015,1.523-7.49.943-9.8,3.949-.859,1.122-5,2.026-1.248,5.382.516.465-.269,1.859-.891,1.757-2.472-.4-4.893-1.484-7.431-.644-.133-.806-.593-2.03-.346-2.35,2.461-3.135,1.889-8.3,4.688-11.191a3.1,3.1,0,0,0,.96-3.135c-1.745-.5-4.795,5.655-4.989-1.842-2.206,1.983-.5,3.476-.383,4.956.46,5.954-2.1,10.7-6.537,12.223-3.241,1.113-4.795-.243-4.715-4.542q.658-.78,1.312-1.565l.234-.516-.37.341q-.659.78-1.32,1.561c-2.655,2.938-5.111,6.623-9.241,3.514-.388-.294-1.274.333-1.876.678-1.447.832-3.084,2.017-4.108-.341-1.195-2.747,1.33-3.621,2.7-5.485-2.238-1.616-4.917,1.262-6.3-1.9-.45-.162.005-1.565-.913-1.088.253.418.506.832.758,1.25-2.661,5.173-4.372-1.9-6.708-.866C215.6,50.279,210.3,51.767,206,45.916c-1.147-1.565-2.07-1.864-3.408-.853.929.473,2.2.554,1.98,2.452a1.375,1.375,0,0,1-.774.989c-1.487.281-1.546-1.348-1.926-2.525-.766-.755-1.533-1.505-2.3-2.26l-.378-.32.266.465a18.375,18.375,0,0,1-.426,3.13c-3.515.128-7.152.665-10.5-.324-1.511-.448,1.08-2.324,1.195-3.894-1.58-.426-3.64-.913-4.316,1.007-1.847,5.25-4.709,2.712-7.375,2.149a2.22,2.22,0,0,1-.543.473c-.074.03-.354-.32-.33-.414a3.044,3.044,0,0,1,.362-.7,6.581,6.581,0,0,0,.673-2.363c-.2-1.467-1.08-1.642-2.03-.921-1.719,1.3-3.246,3.1-5.29,3.57-1.07.247-2.283.712-3.235.311-1.628-.687-.365-4.278-2.283-4.717-2.562-.584-.479,3.676-2.3,4.018-1.705.32-2.969-.955-4.143-2.248-.649-.712-1.514-2.188-2.054-.964-2.634,5.975-5.1.444-7.615.043a9.18,9.18,0,0,0-1.352-1.787c-.447-.354-.838.252-.476.768a6.262,6.262,0,0,0,1.658,1.275c-.564,2.764-1.817,3.689-4.028,2.776a7.32,7.32,0,0,1-4.172-3.6c-1.45,1.676-2.8,2.521-4.534.256-1.054-1.386-2.485-.537-3.813-.038a40.355,40.355,0,0,1-7.2,2.2c-2.868.495-3.121-.392-1.777-5.207.434-.529.867-1.053,1.3-1.582a9.971,9.971,0,0,0-.04-8.982l-.4-.294.285.439a34.588,34.588,0,0,1,.048,8.7c-.452.508-.907,1.011-1.36,1.518-2.557,1.262-7.149-3.066-7.485,4.47-.035.763-1.219.874-1.756.405-2.921-2.567-6.072-.862-9.11-.887-5.981-.047-11.372-3.455-17.138-4.708-1.993-.435-1.2-2.508-.976-4.1.136-.6,1.328,0,.883-1.258l-1.046,1c-.239.478-.511.934-.718,1.437-.83,2.026-.242,6.35-3.2,5.122-3.062-1.271-.08-4.252-.149-6.474,1.027-3.655,2.786-6.171,6.2-6.107-5.284-.085-5.284-.085-6.29,6.026-1.721-.755-3.7-2.128-3.579,2.1.128,4.359-2.807,4.35-4.052,3.028-3.443-3.659-6.923-2.141-10.531-1.578-3,.465-4.781-1.156-4.842-5.233l.274-.418-.38.277c-1.855,1.015-3.861.815-5.755,2.559-2.634,2.418-4.2,1.045-6.247-3.941.112-.58,1.211-.03.835-1.173l-.953,1c-.553-.5-1.487-1.552-1.607-1.42-5.1,5.677-9.89,1.723-15.1.115-2.371-.729-4.9-2.222-7.99-1.723-5.018.81-10.334-.141-15.382-2a12.016,12.016,0,0,1-4.664-3.433C-1.128,17.388-.873,14.2,3.464,10.76A5.259,5.259,0,0,1,5.279,9.6C14.094,7.626,22.262,2.184,31.4,1.855,38.383,1.6,45.379,1.463,52.358.981a66.74,66.74,0,0,1,16.635.435c5.545,1.015,11.276.452,16.925.465,16.081.034,32.165-.277,48.239.107,11.542.277,22.925-2.218,34.5-1.9,22.752.623,45.522.081,68.285.141,2.6,0,5.484-1.181,7.7,1.834.269.367.894.857,1.064.716,6.971-5.736,14.168.516,21.323-.623,7.357-1.169,14.937-.614,22.387-.073,4.231.307,8.4,1.693,12.724,1.335,1.86-.154,3.651.815,3.39,4.047l-.311.435.42-.294c1.245-2.619,2.879-4.209,5.476-3.988,4.9.414,9.765.222,14.716,1.134,7.056,1.3,14.336.708,21.52.8,3.584.047,6.684,1.015,8.373,5.57C357.094,16,354.681,18,351.749,19.6l-.314.426.42-.286c5.675-1.587,5.675-1.587,4.042-8.764-.176-2.589.921-4.06,2.778-3.651,9.781,2.158,19.705,2.265,29.539,3.6,2.592.354,4.481,2.44,5.255,6.986,1.032-7.336,1.581-8.09,5.893-6.785,7.006,2.124,14.166,2.043,21.254,2.84,3.193.358,6.072,3.463,9.531,1.676.263-.132,1.123,1.6,1.706,2.474.468.166,0,1.668.974,1.117-.255-.444-.514-.883-.769-1.322.1-2.657.828-4.039,2.9-2.081,1.777,1.676.748,4.794,2.094,7.28,2.256-6.086,5.441-7.1,10.55-6.124,6.513,1.241,13.272,2.67,19.977.921,2.389-.627,4.417.925,6.532,1.83a1.583,1.583,0,0,1,.551,2.614c-.434.508-1.243.486-1.881.7-1.2-1.4-2.02-.93-2.365.925-.261,1.39-.319,2.845-.466,4.269l-.223.452.357-.286c1.272-1.429.881-4.226,2.653-5.246.915,1.48,3.571,3,2.461,4.35M58.363,25.142c-1.32-2.388-3.193-1.514-5.031-1.173,1.652-.4,2.98,2.4,5.031,1.173m11.952.4c-.192-.085-.386-.252-.572-.235-.663.051-.78.328-.309.64a.756.756,0,0,0,.609,0c.109-.038.181-.269.271-.409m4.4.358c-.059-.154-.33-.183-.511-.264-.133.179-.37.345-.378.533-.045.8.242.951.716.388a.917.917,0,0,0,.173-.657m29.7,5.9a30.7,30.7,0,0,0-1.094-4.781c-.484-1.224-1.485-.9-2.2-.034-.849,1.019-1.721,2.141.319,2.636.3-.166.607-.333.91-.495-.128.384-.258.772-.386,1.16q-.251,2.309-.5,4.623-1.237.058-2.474.124l-.38-.3.258.452c.282.857-.913,2.41.455,2.576,1.112.132,1.706-1.433,2.336-2.525.95-.93,1.083-2.9,2.509-3.22.357,1.672.71,3.344,1.2,5.659,1.482-3.229.021-4.448-.953-5.877M121.51,30.69c-.213-.414-.439-1.186-.641-1.173-1.479.081-1.767,2-2.671,3.007a3.631,3.631,0,0,0,1.189.435c1.163-.009,2.089-.49,2.123-2.269m9.507-10.3a10.069,10.069,0,0,0,1.628-1.322c.282-.333-.1-.866-.673-.648a3.593,3.593,0,0,0-1.652,1.2c-.322.452.045.9.7.768m2.794,11.929c-.061-.746-.479-.925-.958-.482-.95.874-1.107,2.265-1.591,4.384a3.408,3.408,0,0,0,2.549-3.9m5.814-1.4c-1.482.452-2.323,1.437-1.745,3.463a2,2,0,0,0,.934.862,4.863,4.863,0,0,0,.812-4.325M150.2,17.1a5.172,5.172,0,0,0-.285-1.407c-.325-.6-.758-.486-.8.2a3.561,3.561,0,0,0,.4,1.424c.3.729.548.653.681-.213m7.732,14.385c-.394.243-1.418.5-1.865,1.284-.346.61.439,1.493,1.144,1.621a1.877,1.877,0,0,0,2.129-1.557c.3-.977-.082-1.561-1.408-1.348m6.17-.759c-.194-.085-.391-.256-.58-.239-.671.055-.788.341-.309.657a.752.752,0,0,0,.615,0c.112-.043.184-.273.274-.418m4.292.409c-1.107-.094-1.12,1.395-1.562,2.252a13.5,13.5,0,0,0-.923,1.139c-.4.6-.969,1.177-.5,2.094.1.2.365.418.514.38.812-.2.692-1.147.83-1.864.1-.529.144-1.079.21-1.616.764.034,1.732,1.139,2.179-.495.208-.763.011-1.825-.748-1.889m7.785-21.158.359.273.069-.375Zm-3.249.618c-.035-.188-.317-.3-.487-.452-.527,0-.79.358-.676,1.028a.675.675,0,0,0,.484.435c.527.051.793-.341.679-1.011m9.334,25.858-.388.3a7.086,7.086,0,0,0-.686,1.356c-.178.653-.58,1.433.21,1.949.09-.525.178-1.049.279-1.574s.224-1.041.335-1.561Zm.255-5.3a6.207,6.207,0,0,0-6.45.273c1.916-.934,3.722,2.405,6.45-.273M182.1,20.186a3.235,3.235,0,0,0-1.525,1.4c-.234.4.216.879,1.067.9.346-.247,1.152-.473,1.426-1.083.559-1.258-.386-1.429-.968-1.224m5.683,11.336A1.124,1.124,0,0,0,186.1,30.8a1.837,1.837,0,0,0-.926,1.979c.085.947.527,1.467,1.333,1.348.8-.576,1.644-1.241,1.277-2.606m6.05.87c-.391.171-1.112.316-1.123.52a3.086,3.086,0,0,0,1.115,2.832c.2.132.921-.341,1.014-.7.317-1.194.08-2.226-1.006-2.648M199.4,11.2c.149-.021.271-.35.4-.537-.074-.213-.128-.584-.229-.606a.571.571,0,0,0-.543.247c-.343.618-.189.985.367.9m5.673,21.329a8.661,8.661,0,0,0-5.444-.081c-.609.179-.631.725-.122,1.2,1.6-.955,3.4,1.3,5.566-1.117m6.742,11.4a3.949,3.949,0,0,0-.921-.972c-.535-.021-.809.341-.559.883a1.815,1.815,0,0,0,.934.913c.511.166.8-.29.545-.823m.474-10.6c0-.175-.282-.508-.423-.5-1.157.077-1.062,1.488-1.487,2.35-.106.2-.319.422-.3.6a8.819,8.819,0,0,0,.322,1.271l.4.311-.3-.444a5.341,5.341,0,0,1,.019-1.608c.724-.469,1.761-.5,1.769-1.979m4.994-9.511c.5.827.875,2.128,1.517,2.4,1.559.648,1.463-1.416,1.783-2.469.255-.849-.282-1.51-1.338-1.506-.532.426-1.245,1-1.961,1.578m4.946,8.807c-1.724-.614-3.525-1.032-6.319,1.053a19.431,19.431,0,0,1,4.757,3.587c1.418,1.262,2.639-.209,3.241-1.778.726-1.885-.684-2.5-1.679-2.862m8.1-9.7L230,22.911l.154.52Zm.274,8.9c1.836,1.928,1.352,4.986,3.246,8.513.319-7.212.319-7.212-3.246-8.513m4.526,11.3c-.2.038-.471-.009-.6.136a.864.864,0,0,0,.082,1.331.534.534,0,0,0,.591-.115.919.919,0,0,0-.069-1.352m7.312-9.144a23.578,23.578,0,0,0-2.767.013c-1,.2-1.655.832-1.541,2.282l4.308-2.294m3.555,1.655c-.04-.226-.937-.418-.945-.392-.359,1.241-.663,2.512-.974,3.774,1.5-.823,2.192-1.906,1.918-3.382m3.845,10.918c-.16-.145-.3-.371-.479-.418-.577-.154-.846.081-.66.525.061.145.372.115.569.166.189-.09.378-.179.569-.273m1.942-6.009c.04-.665-.269-1-.8-.844-.149.043-.245.4-.365.606.008.665.29,1,.814.853.146-.043.33-.388.346-.614m14.458-4.93c-.391-1.066-.987-1.488-1.679-1.088a2.033,2.033,0,0,0-.623,1.39c-.059,1.011.4,1.616,1.221,1.275.609-.256,1.227-.678,1.08-1.578m6.612-25.376.418-.149-.383-.239ZM273.09,37.7c-2.259-.844-3.166,1.254-4.324,2.678l-.226.448.359-.281c1.32-.921,3.462.162,4.191-2.845m2.137-15.443c-2.722-1.233-3.094-4.359-5.109-2.38-1.144,1.126-1.125,2.9-.591,4.67,1.171-1.386,2.717-1.186,5.7-2.29m6.684,16.1c.138-1.181-.3-2.619-1.32-2.107-1.237.631-3.158.107-3.619,2.286.37,1.8.987,2.99,2.27,2.9,1.45-.1,2.45-1.2,2.669-3.079m.748-13.75a2.112,2.112,0,0,0-1.115.508c-.572.38-.519.763.138.832a3.378,3.378,0,0,0,1.131-.281c.431-.537.38-1.011-.154-1.058m.875,20.42.029-.691-.33.333Zm6.5-5.011c-.234-.452-.468-.9-.7-1.348l-2.581-2.034q-.782-1.644-1.565-3.284l-.343-.354.226.5c.506,1.1,1.008,2.2,1.514,3.292q-.044,1.746-.088,3.484a3.085,3.085,0,0,0-2.325,3.19l2.019-.051q.231-1.491.468-2.973,1.253-.806,2.512-1.612c.418.243-.109,1.6.865,1.186m11.388-15.23c-.019,1.774-1.714,3.374-.122,5.694.686-2.115,3.741-3.531.237-5.839l-.4-.3Zm3.5,14.04c-2.28-.584-4.529-3.817-4.877,1.429-.873.03-1.743.064-2.615.094-1.964-2.115-2.214.32-2.844,1.74-.412.542-.828,1.083-1.24,1.625l-.261.473.4-.29c.42-.533.841-1.07,1.259-1.6q1.305-.889,2.607-1.77c.314.925.458,2.218,1.461,2.171s1.094-1.326,1.341-2.29c1.74.9,3.169.559,4.768-1.578m3.666-14.543c-.141-.132-.285-.384-.42-.375-.178.009-.471.183-.5.358-.146.729.1,1,.593.661.157-.107.224-.422.33-.644M312.921,10.8l.154.525.162-.516Zm4.933,12.1-.4-.3.293.444c-.466,3.668-4.02,7.391.09,11.187,3.584-3.915,1.179-7.621.016-11.332m2.317-6.615c-4.039-1.079,1.157-4.708-2.216-6.244-2.073,1.275-.724,6.734-4.34,6.227-.362-.789-.825-1.348-1.594-.925-.157.085-.221.448-.327.682l1.793.512c1.884,1,3.776,1.4,6.684-.252m9.93,25.794c.479-1.923.915-3.983-.96-4.922-.29-.145-1.764,1.906-1.841,3.041-.165,2.435,1.256,2.546,2.73,1.979l.4.375Zm3.72-18.429c-1.413-.567-2.5.759-3.768,1.058l-.346-.4.25.52.1,1.783-1.469,3.305-.229.542.333-.426c.522-1.079,1.043-2.154,1.565-3.233,1.054-1.3,3.757.452,3.568-3.147m2.943,27.026-.3-.576-.428.23a1.682,1.682,0,0,0,.732.345m.245-18.667c-1.908-1.139-.947,2.938-2.669,2.294-.7-.264-1.549-1.842-2.152-.418-.253.6.5,2.039.966,2.947.583,1.117,1.49,1.164,2.219.26,1.091-1.36,2.142-2.832,1.636-5.084m1.272-16.782c-.886-.857.809-4-1.517-4.209-1.881-.171-2.283,2.128-2.6,4.124-.447,2.866,1.235,3.386,2.687,3.519,1.253.111,1.82-1.237,1.426-3.433m7.1,13.2c-1.493.431-2.908-1.267-5.069.512,2.07.823,3.539,1.019,5.069-.512m6.774,8.918-.223-.473c-.679-.716.346-2.712-1.131-2.585a6.741,6.741,0,0,0,1,2.747Zm1.243-10.9c-.011-.644-.6-1.753-1.008-1.813-.9-.132-1.575.815-1.913,1.83-.415,1.237.463,1.181,1.048,1.373.8-.107,1.905.226,1.873-1.39m1.551,17.413c-.176.512-.351,1.019-.527,1.527l-1.453,1.2c.258.307.519.61.78.917q.415-.979.835-1.958c.141-.554,1.163-.8.365-1.689m5.452-18.91a16.1,16.1,0,0,1-.463,10.3c-.117.171-.349.38-.325.512a6.527,6.527,0,0,0,.372,1.062c.218.576.434,1.152.652,1.723-.165-.627-.333-1.25-.5-1.877a1.2,1.2,0,0,1,.011-1.224c1.067-.823,3.116,1.088,3.366-1.194.33-3.041,1.12-6.76-3.116-9.3m14.115,5.48a1.406,1.406,0,0,0,1.075.772,2.308,2.308,0,0,0,2.333-2.32,25.917,25.917,0,0,0-.189-4.116l.242-.456-.372.294c-.785.972-1.6,1.906-2.341,2.926a2.89,2.89,0,0,0-.748,2.9m1.969,18.33a3.782,3.782,0,0,1,.019-2.887c.378-.29.756-.576,1.133-.866-.758-.815-.918.426-1.373.653-1.109,1.122-1.147,2.209.061,3.258-.184,1.655-3.246,2.273-1.2,4.563.764.857,2.267.26,2.751-1.258.511-1.6-.758-2.405-1.389-3.463m2.054-11.276c-.082-.7-.455-.921-.934-.589a2.717,2.717,0,0,0-1.421,2.4c.005.175.71.32,1.094.473,1.04-.2,1.4-1.049,1.261-2.286m10-19.085c-1.181-1.424-2.453-1.437-3.536.051-.673.93-2.653,1.4-1.767,2.985,3.1,5.553-1.458,10.935.218,16.961,3.515-2.141-.213-6.269,1.9-7.681,2.882-1.919,1.344-6.342,3.6-8.534.894-.87.519-2.661-.412-3.783M392.282,30.4l.338-.439.346-.414-.436.286Zm1.07,16.454c-.186-.516-.375-1.032-.561-1.548a1.054,1.054,0,0,1,0-1.177,3.191,3.191,0,0,0-.176-3.838l-.415-.345.343.444.032,3.54c-.122.166-.367.367-.346.49a6.3,6.3,0,0,0,.375,1.062c.362.358-.277,1.6.748,1.373m2.078-24.868-.418.141.383.243Zm8.839-4.248h-.325l.157.512Zm5.239.209c-.011-.657-.287-.985-.806-.844-.149.038-.333.384-.346.606-.04.661.266.994.788.84.149-.047.245-.392.365-.6m3.64,4.3c-.442-.418-.777-.222-.862.508-.021.175.17.392.266.589.178-.136.357-.277.535-.418.024-.235.133-.61.061-.678m2.461,13.814c-.13-.06-.351.2-.529.311,0,.247-.072.559.021.716a.441.441,0,0,0,.516.1c.468-.448.463-.908-.008-1.126m6.588,5.446c.016-.785.029-1.565.045-2.35a1.493,1.493,0,0,0-.045,2.35m6.609-18.945-.415-1.369c-.327.286-.8.478-.953.874-.293.759-.192,1.587.649,1.574.242,0,.479-.7.718-1.079M428.62,49.63c-.556.281-1.115.563-1.671.84a1.374,1.374,0,0,0,1.671-.84m8.285-21.252-.106-.537-.189.495Zm14.224,2.29-.426.136.388.243Zm3.246-6.922c-.138-.495-.168-1.245-.436-1.433-.676-.473-1.362-.081-1.724.729a1.391,1.391,0,0,0,.663,1.987c.748.273,1.173-.508,1.5-1.284" transform="translate(0 -0.002)" fill="#f5ff03"/><path d="M188.823,6.234c-.974-1.676-1.889-1.339-2.772.115.862.043,1.729.09,2.594.132-.168,1.578-.583,2.828-2.11,2.623l-.511-2.725c-1.091,1.109-1.623,2.286-.263,3.693q.686,2.341,1.37,4.691-.6.947-1.2,1.894c-.559.367-.631.682-.192.793.09.021.247-.367.372-.567q.742-.768,1.49-1.531c5.156-4.636,5.284-5.6,1.224-9.118" transform="translate(307.148 16.688)" fill="#f5ff03"/><path d="M193.482,5.9c-2.363.964-3.579,2.956-4.377,5.271a2.541,2.541,0,0,0,1.4,3.284c1.157.537,2.544.657,2.166-1.506-.434-2.482,1.993-3.907.806-7.05" transform="translate(313.767 19.251)" fill="#f5ff03"/><path d="M185.321,6.667c-1.751-.23-3.736,2.823-3.342,5.186.152.917.838,1.518,1.439,1.194a5.584,5.584,0,0,0,3.241-4.534c-.141-1.245-.62-1.753-1.338-1.847" transform="translate(302.132 21.726)" fill="#f5ff03"/><path d="M122.049,12.826c-1.229.213-1.886,1.215-1.873,2.781.013.934.511,1.582,1.253,1.407a2.432,2.432,0,0,0,1.929-2.7c-.186-.917-.527-1.629-1.309-1.493" transform="translate(199.578 41.818)" fill="#f5ff03"/><path d="M194.479,6.907a1.2,1.2,0,0,0-1.594.989c-.075,2.295,1.573,2.307,2.714,2.883.835.021,1.368-.52,1.29-1.5-.138-1.766-1.312-2.107-2.411-2.376" transform="translate(320.324 22.408)" fill="#f5ff03"/><path d="M196.627,6.032c-.7-.192-1.349.209-1.373,1.224a1.289,1.289,0,0,0,1.306,1.416c.753-.145,1.376-.529,1.062-1.638a1.683,1.683,0,0,0-1-1" transform="translate(324.261 19.539)" fill="#f5ff03"/><path d="M183.482,11.5c-1.61,1.3-3.118.96-3.919-1.134-.87-2.277.649-2.819,1.993-3.237l1.466-1.6a3.233,3.233,0,0,1,.426-.452c.032-.021.263.273.247.307a3.7,3.7,0,0,1-.351.55,6.367,6.367,0,0,0,.239,1.147c.628,0,1.256.013,1.884.017.325-1.053.556-2.226,1.666-2.337.154-.013.466.3.474.486a2.808,2.808,0,0,1-1.439,2.61c.9,3.369-1.038,3.327-2.685,3.638m-.761-1.369-.04-2.073-.45-.051a2.152,2.152,0,0,0,.49,2.124" transform="translate(297.777 15.552)" fill="#f5ff03"/><path d="M177.331,9.421c-.279.09-.575.776-.623,1.233-.08.768.106,1.629.873,1.578.665-.047.992-.763,1.067-1.6-.162-.9-.633-1.424-1.317-1.207" transform="translate(293.434 30.595)" fill="#f5ff03"/><path d="M132.681,14.071a.762.762,0,0,0,.293,1.228c.346-.2.841-.294.992-.635.12-.273-.17-.849-.279-1.288a3.483,3.483,0,0,0-1.006.7" transform="translate(220.015 43.669)" fill="#f5ff03"/><path d="M169.079,11.244a1.072,1.072,0,0,0-.918.627c-.1.328.178.857.293,1.3.327-.243.74-.4.958-.751.314-.508.146-1.113-.333-1.177" transform="translate(279.23 36.7)" fill="#f5ff03"/><path d="M185.71,9.371c-.482-.119-.708.2-.66.844.311.273.644.8.929.759.495-.077.572-.653.226-1.186a.966.966,0,0,0-.495-.418" transform="translate(307.305 30.512)" fill="#f5ff03"/><path d="M179.117,9.2c-1.12.674-.455,1.761-.269,2.721-.479,1-.311,1.164.447.563a2.241,2.241,0,0,0,.788-2.653c-.122-.345-.756-.759-.966-.631" transform="translate(296.408 29.945)" fill="#f5ff03"/><path d="M180.072,8.005A5.167,5.167,0,0,0,180.6,9.4c.407.5.9.3.974-.409a1.911,1.911,0,0,0-.436-1.365c-.2-.166-.7.23-1.064.38" transform="translate(299.048 24.764)" fill="#f5ff03"/><path d="M185.383,5.4h-.032l.005.03.013-.013.013-.017" transform="translate(307.815 17.632)" fill="#f5ff03"/><path d="M197.748,6.88c.008.094.314.154.484.23.072-.243.141-.486.213-.734-.176-.073-.442-.273-.508-.2a1.074,1.074,0,0,0-.189.7" transform="translate(328.398 20.12)" fill="#f5ff03"/><path d="M200.819,6.324c-.732-.171-1.189.38-1.549,1.1a2.936,2.936,0,0,0-.354.674c-.021.085.245.422.314.392a2.164,2.164,0,0,0,.527-.456c.628-.128,1.3-.218,1.482-1.186.027-.132-.253-.49-.42-.529" transform="translate(330.342 20.543)" fill="#f5ff03"/><path d="M202.007,7.124c-.144-.051-.343.162-.516.252.035.209.016.508.117.606.141.132.436.235.551.136.46-.4.4-.806-.152-.994" transform="translate(334.619 23.232)" fill="#f5ff03"/><path d="M173.745,9.527c.051.218.1.439.154.657.516.064.631-.218.293-.8-.035-.06-.293.09-.447.141" transform="translate(288.541 30.599)" fill="#f5ff03"/><path d="M172.22,11.545a1.71,1.71,0,0,0,.152.559c.051.064.258-.068.4-.115a1.71,1.71,0,0,0-.149-.559c-.051-.064-.261.073-.4.115" transform="translate(286.008 37.26)" fill="#f5ff03"/><path d="M151.484,13.918l.045-.665-.559.277Z" transform="translate(250.719 43.268)" fill="#f5ff03"/><path d="M167.094,11.754a2.16,2.16,0,0,0-.46.418c-.141.35-.282.7-.423,1.058.277-.183.553-.367.827-.546a2.784,2.784,0,0,0,.325-.589c.021-.068-.215-.367-.269-.341" transform="translate(276.029 38.369)" fill="#f5ff03"/><path d="M166.769,9.445l.378-.5-.391.482c-.545.264-.639.5-.261.593.061.013.181-.375.274-.576" transform="translate(276.12 29.206)" fill="#f5ff03"/><path d="M150.893,9.831a9.8,9.8,0,0,0-.019-1.557c-.157.145-.466.363-.447.426a9.227,9.227,0,0,0,.466,1.13" transform="translate(249.816 27.012)" fill="#f5ff03"/><path d="M126.219,3.8a.781.781,0,0,0,.192.571c.077.077.285-.055.434-.094.032-.218.154-.516.085-.648-.285-.525-.575-.452-.71.171" transform="translate(209.603 10.71)" fill="#f5ff03"/></g></g></svg>