<?xml version="1.0" encoding="UTF-8"?><svg id="_レイヤー_2" xmlns="http://www.w3.org/2000/svg" viewBox="0 0 172 171"><defs><style>.cls-1{fill:#fff;}.cls-1,.cls-2{stroke-width:0px;}.cls-2{fill:#01309b;}</style></defs><g id="_レイヤー_1-2"><ellipse class="cls-2" cx="86" cy="85.5" rx="86" ry="85.5"/><path class="cls-1" d="m45.87,115.48v-53.14c.08-1.4-.99-2.59-2.38-2.67-.07,0-.14,0-.21,0-1.62,0-3.89,1.7-5.1,2.75-2.03,1.78-4.29,3.28-6.72,4.45-1.78.89-2.35,1.62-2.35,3.65,0,1.78.49,2.75,2.35,2.75h3.56c1.78,0,2.51.89,2.51,2.59v39.61c0,1.38.65,2.51,2.19,2.51h3.81c1.24.06,2.3-.9,2.36-2.15,0-.12,0-.24-.01-.37Zm39.37-15.88v-21.06c0-6.64-.73-10.29-3-13.77-2.27-3.56-6.48-5.51-11.58-5.51s-8.91,1.86-11.42,5.51c-2.19,3.16-3.08,7.13-3.08,13.77v21.06c0,6.64.89,10.29,3.08,13.69,2.35,3.56,6.4,5.59,11.42,5.59s9.07-1.86,11.58-5.59c2.19-3.16,3-6.97,3-13.69Zm-8.42,1.79c0,7.13-1.54,9.56-6.16,9.56s-6.08-2.43-6.08-9.56v-24.7c0-7.05,1.54-9.56,6.08-9.56s6.16,2.43,6.16,9.56v24.7Z"/><path class="cls-1" d="m101.4,66.97c.03,1.67-.09,3.33-.35,4.98-.37,2.99-1.51,5.84-3.32,8.25-1.05,1.38-2.36,2.54-3.85,3.42.84.66,1.55,1.48,2.1,2.4,1.98-1.32,3.65-3.05,4.9-5.07,1.42-2.28,2.37-4.82,2.77-7.47h7.77c-.17,4.35-.52,7.4-1.02,8.62-.27.7-.73.9-1.95.9-1.32-.05-2.63-.21-3.93-.5.37.91.6,1.87.68,2.85,2.2.17,2.72.2,3.55.2,2.48,0,3.58-.55,4.2-2.1.62-1.52,1.12-5.5,1.3-9.9,0-.94.05-1.89.15-2.82-1.06.11-2.13.15-3.2.12h-7.17c.14-1.29.22-2.58.23-3.88h9.38c1.06,0,2.12.05,3.17.15v-2.95c-1.06.11-2.13.16-3.2.15h-16.07c-1.07,0-2.14-.04-3.2-.15v2.95c1.02-.1,2.08-.15,3.23-.15h3.85Zm21.68,9.27h14.88v6.1c0,.6-.15.68-1.12.68-.9,0-2.15-.1-3.8-.28.39.86.65,1.77.78,2.7.97.05,2.35.1,3.33.1.89.08,1.79-.04,2.62-.35.72-.38,1.03-1.08,1.03-2.35v-16.02c-.02-.91.02-1.82.1-2.73-.91.09-1.82.12-2.72.1h-15.2c-.93.01-1.85-.02-2.77-.1.08.8.11,1.6.1,2.4v16.35c.01,1-.04,2-.15,3h3.07c-.12-.96-.16-1.93-.12-2.9v-6.7Zm5.92-2.62h-5.92v-6.77h5.92v6.77Zm2.7,0v-6.77h6.25v6.77h-6.25Z"/><path class="cls-1" d="m110.27,95.18c.07.5.1,1.01.09,1.52,0,4.55-.83,8.16-2.48,10.83-1.68,2.71-4.16,4.58-8.21,6.14.59.69,1.08,1.46,1.47,2.28,3-1.13,5.66-3.02,7.7-5.5,1.27,2.09,2.95,3.9,4.95,5.31.4-.95.95-1.83,1.61-2.62-2.09-1.17-3.82-2.88-5.01-4.95.61-1.06,1.09-2.19,1.45-3.36.59-2.09.96-4.25,1.1-6.42q.21-2.94.23-3.2l-2.89-.04Zm-13.92,14.86c-.75.31-1.51.55-2.3.74l.74,2.81c.57-.28.74-.34,1.61-.74,3.13-1.27,6.16-2.81,9.04-4.58l-.55-2.41c-1.89,1.18-3.87,2.22-5.91,3.13l-.12-10.97v-.51c0-.75.03-1.51.11-2.25h-2.92c.12.91.18,1.82.18,2.74l.12,12.05Zm4.51-12.05c1.73,1.74,3.21,3.72,4.39,5.86l2.37-1.63c-1.32-2.03-2.84-3.92-4.55-5.63l-2.21,1.4Zm24.68.25v14.28c.02,1.06-.03,2.12-.16,3.17h2.99c-.13-1.05-.18-2.11-.16-3.17v-8.99c2.43,1.11,4.75,2.42,6.95,3.93l1.31-2.3c-2.63-1.63-5.4-3.04-8.26-4.23v-2.69h6.49c1.17,0,2.12.05,3.08.14v-2.69c-1.02.1-2.05.14-3.08.14h-14.45c-1.03,0-2.06-.04-3.08-.14v2.69c.92-.09,1.93-.14,3.08-.14h5.29Z"/></g></svg>